<svg xmlns="http://www.w3.org/2000/svg" viewBox="0 0 66 54" fill="#fff" fill-rule="evenodd" stroke="#000" stroke-linecap="round" stroke-linejoin="round" width="300" height="300" font-family="Roboto" font-size="14px" text-anchor="middle" xmlns:xlink="undefined"><use xmlns:ns1="http://www.w3.org/1999/xlink" ns1:href="#I" x=".5" y=".5"/><defs><style xmlns="http://www.w3.org/1999/xhtml" type="text/css"></style><linearGradient y2="50.00%" y1="50.00%" x2="100.00%" x1="-0.00%" id="A"><stop stop-color="#2a59a2" offset="0%"/><stop stop-color="#2a59a2" offset="100%"/></linearGradient><linearGradient y2="50.00%" y1="50.00%" x2="179.76%" x1="-7.21%" id="B"><stop stop-color="#91d3f2" offset="0%"/><stop stop-color="#6fb2de" offset="26.6%"/><stop stop-color="#5598ce" offset="52.1%"/><stop stop-color="#4b8fc8" offset="67.3%"/></linearGradient><linearGradient y2="50.00%" y1="50.00%" x2="160.91%" x1="-0.00%" id="C"><stop stop-color="#2c9ec7" offset="0%"/><stop stop-color="#2c63a5" offset="40.4%"/><stop stop-color="#395da1" offset="100%"/></linearGradient><linearGradient y2="50.00%" y1="50.00%" x2="441.18%" x1="-415.68%" id="D"><stop stop-color="#4faac4" offset="0%"/><stop stop-color="#2f75b1" offset=".2%"/><stop stop-color="#356eac" offset="100%"/></linearGradient><linearGradient id="E" x1="-0.00%" x2="162.18%" y1="50.00%" y2="50.00%"><stop offset="0%" stop-color="#4faac4"/><stop offset=".2%" stop-color="#2f81b6"/><stop offset="100%" stop-color="#3b5ea9"/></linearGradient><linearGradient y2="50.00%" y1="50.00%" x2="146.50%" x1="-79.61%" id="F"><stop stop-color="#4faac4" offset="0%"/><stop stop-color="#1e3773" offset=".2%"/><stop stop-color="#203370" offset="100%"/></linearGradient><linearGradient y2="-3.06%" y1="147.30%" x2="50.00%" x1="50.00%" id="G"><stop stop-color="#4faac4" offset="0%"/><stop stop-color="#2c5a9a" offset=".2%"/><stop stop-color="#374580" offset="100%"/></linearGradient><linearGradient y2="50.00%" y1="50.00%" x2="129.61%" x1="-22.26%" id="H"><stop stop-color="#38b1da" offset="11.2%"/><stop stop-color="#326fb5" offset="100%"/></linearGradient></defs><symbol id="I" overflow="visible"><g stroke="none" fill-rule="nonzero"><path d="M63.66 22.29h-1.143c-2.08-.026-6.065.197-9.68 3.32-8.63 7.472-10.6 18.47-25.368 24.407C15.166 54.96 0 50.28 0 50.28s13.532-.94 15.327-11.267c1.4-8.077-5.947-13.81-10.56-21.097-4.7-7.42-5.895-13.584-3.635-16.247 6.407-7.565 24.05 12.886 32.81 15.642 8.573 2.694 14.36-3.563 21.46-2.642 2.265.3 3.37 1.267 4.106 2.513.248.42.858 1.846 1.4 2.374.533.517 1.24.9 1.903 1.288.843.496 1.675 1.448.848 1.448z" fill="url(#A)"/><path d="M23.114 10.46l-6.458-4.845-1.453-1.02C9.437.65 4.1-1.82 1.133 1.67c-2.26 2.663-1.055 8.827 3.64 16.247.047.078.098.15.145.228 2.446 3.785 9.54 12.653 26.356 12.276 1.107-1.174 2.787-3.392 4.96-5.807-3.52-5.693-8.827-10.657-13.12-14.153z" fill="url(#B)"/><path d="M40.064 37.214c.067-2.523-.393-5.01-1.267-7.415-2.208.33-4.695.558-7.524.62-2.058 2.187-6.758 8.03-14.546 13.294C6.36 50.726.005 50.28.005 50.28s15.17 4.68 27.468-.264c4.41-1.774 7.684-3.997 10.332-6.448.434-.414 2.167-2.575 2.26-6.355z" fill="url(#C)"/><path d="M36.238 24.613l-4.96 5.807c2.834-.062 5.32-.3 7.524-.62a23.7 23.7 0 0 0-.889-2.125c-.496-1.04-1.06-2.063-1.675-3.06z" fill="url(#D)"/><path d="M48.844 15.465c-4.54 1.376-9.075 3.676-14.902 1.846-2.885-.905-6.738-3.733-10.828-6.85 4.292 3.496 9.597 8.454 13.124 14.153 3.216-3.563 7.508-7.544 12.607-9.147z" fill="url(#E)"/><path d="M38.802 29.8c.874 2.405 1.334 4.892 1.267 7.415-.098 3.775-1.83 5.936-2.265 6.355 6.2-5.745 8.987-12.72 15.037-17.958 1.127-.972 2.286-1.665 3.418-2.156h-.005c-3.966 1.665-8.268 4.96-17.452 6.345z" fill="url(#F)"/><path d="M63.66 22.29c.827 0-.005-.95-.843-1.443-.662-.393-1.37-.776-1.903-1.288-.548-.527-1.158-1.96-1.4-2.373-.74-1.25-1.84-2.223-4.106-2.513-2.275-.295-4.416.15-6.557.796-5.1 1.603-9.396 5.585-12.612 9.147.615.998 1.184 2.017 1.675 3.056.33.703.63 1.412.89 2.125 9.19-1.386 13.486-4.68 17.452-6.345h.005c2.498-1.086 4.835-1.184 6.262-1.164z" fill="url(#G)"/><path d="M16.728 43.714c7.787-5.264 12.488-11.107 14.546-13.294-16.816.377-23.9-8.49-26.356-12.276 4.618 7.182 11.8 12.88 10.414 20.87C13.537 49.34.005 50.28.005 50.28s6.355.445 16.723-6.567z" fill="url(#H)"/><path d="M53.59 18.52c0-.74.6-1.334 1.344-1.334s1.344.595 1.344 1.334-.6 1.334-1.344 1.334-1.344-.595-1.344-1.334z"/></g></symbol></svg>